HIERARCHY
ROOT hip
{
	OFFSET 0.000000 0.000000 0.000000
	CHANNELS 6 Xposition Yposition Zposition Xrotation Zrotation Yrotation 
	JOINT abdomen
	{
		OFFSET 0.000000 3.422050 0.000000
		CHANNELS 3 Xrotation Zrotation Yrotation 
		JOINT chest
		{
			OFFSET 0.000000 8.486693 -0.684411
			CHANNELS 3 Xrotation Zrotation Yrotation 
			JOINT neck
			{
				OFFSET 0.000000 10.266162 -0.273764
				CHANNELS 3 Xrotation Zrotation Yrotation 
				JOINT head
				{
					OFFSET 0.000000 3.148285 0.000000
					CHANNELS 3 Xrotation Zrotation Yrotation 
					End Site
					{
						OFFSET 0.000000 3.148289 0.000000
					}
				}
			}
			JOINT lCollar
			{
				OFFSET 3.422053 6.707223 -0.821293
				CHANNELS 3 Yrotation Zrotation Xrotation 
				JOINT lShldr
				{
					OFFSET 3.285171 0.000000 0.000000
					CHANNELS 3 Zrotation Yrotation Xrotation 
					JOINT lForeArm
					{
						OFFSET 10.129278 0.000000 0.000000
						CHANNELS 3 Yrotation Zrotation Xrotation 
						JOINT lHand
						{
							OFFSET 8.486692 0.000000 0.000000
							CHANNELS 3 Zrotation Yrotation Xrotation 
							End Site
							{
								OFFSET 4.106464 0.000000 0.000000
							}
						}
					}
				}
			}
			JOINT rCollar
			{
				OFFSET -3.558935 6.707223 -0.821293
				CHANNELS 3 Yrotation Zrotation Xrotation 
				JOINT rShldr
				{
					OFFSET -3.148289 0.000000 0.000000
					CHANNELS 3 Zrotation Yrotation Xrotation 
					JOINT rForeArm
					{
						OFFSET -10.266159 0.000000 0.000000
						CHANNELS 3 Yrotation Zrotation Xrotation 
						JOINT rHand
						{
							OFFSET -8.349810 0.000000 0.000000
							CHANNELS 3 Zrotation Yrotation Xrotation 
							End Site
							{
								OFFSET -4.106464 0.000000 0.000000
							}
						}
					}
				}
			}
		}
	}
	JOINT lThigh
	{
		OFFSET 5.338403 -1.642589 1.368821
		CHANNELS 3 Xrotation Zrotation Yrotation 
		JOINT lShin
		{
			OFFSET -2.053232 -20.121670 0.000000
			CHANNELS 3 Xrotation Zrotation Yrotation 
			JOINT lFoot
			{
				OFFSET 0.000000 -19.300380 -1.231939
				CHANNELS 3 Xrotation Yrotation Zrotation 
				End Site
				{
					OFFSET 0.000000 -2.463878 4.653993
				}
			}
		}
	}
	JOINT rThigh
	{
		OFFSET -5.338403 -1.642589 1.368821
		CHANNELS 3 Xrotation Zrotation Yrotation 
		JOINT rShin
		{
			OFFSET 2.053232 -20.121670 0.000000
			CHANNELS 3 Xrotation Zrotation Yrotation 
			JOINT rFoot
			{
				OFFSET 0.000000 -19.300380 -1.231939
				CHANNELS 3 Xrotation Yrotation Zrotation 
				End Site
				{
					OFFSET 0.000000 -2.463878 4.653993
				}
			}
		}
	}
}
MOTION
Frames: 6
Frame Time: 0.049989
0.000000 43.528500 0.000000 0.000000 0.000000 0.000000 0.000000 0.000000 0.000000 0.000000 0.000000 0.000000 0.000000 0.000000 0.000000 0.000000 0.000000 0.000000 0.000000 0.000000 0.000000 0.000000 0.000000 0.000000 0.000000 0.000000 0.000000 0.000000 0.000000 0.000000 0.000000 0.000000 0.000000 0.000000 0.000000 0.000000 0.000000 0.000000 0.000000 0.000000 0.000000 0.000000 0.000000 0.000000 0.000000 0.000000 0.000000 0.000000 0.000000 0.000000 0.000000 0.000000 0.000000 0.000000 0.000000 0.000000 0.000000 0.000000 0.000000 0.000000 
0.000000 4.831345 -5.313606 -90.001877 0.000000 0.000000 6.537897 0.000000 0.000000 23.257025 -0.120602 -0.637142 17.998348 0.000000 0.000000 8.998567 0.000000 0.000000 -1.498679 -19.663021 -13.484437 -59.494282 22.227772 4.619605 -45.160755 6.007041 32.742123 -9.141783 4.884642 24.304529 1.011609 19.398249 -13.184600 60.060123 -22.167763 4.691935 45.711391 -5.880574 32.858131 8.853924 -5.423098 24.696184 -39.650452 13.292201 -17.977831 4.658309 -47.758465 38.285156 27.492855 7.781609 7.740297 -39.714668 -10.289801 17.723934 19.590559 43.421673 -43.160511 27.492508 -7.785854 -7.742918 
0.000000 4.831345 -5.313606 -90.224213 0.000000 0.000000 7.479445 0.000000 0.000000 21.931898 -0.120635 -0.637166 18.402637 0.000000 0.000000 9.133622 0.000000 0.000000 -1.070029 -19.757385 -12.914748 -59.494274 22.227772 4.619606 -45.160755 6.007041 32.742123 -9.159884 4.786535 24.529760 0.592454 19.467142 -12.621630 60.060123 -22.167763 4.691935 45.711391 -5.880575 32.858131 8.867944 -5.314401 24.921427 -39.650444 13.292200 -17.977829 4.959116 -47.709808 38.039265 27.492853 7.781609 7.740296 -39.714664 -10.289801 17.723934 20.044136 43.624458 -42.843090 27.492508 -7.785853 -7.742917 
0.000000 4.831345 -5.313606 -90.446541 0.000000 0.000000 8.422016 0.000000 0.000000 20.603899 -0.120670 -0.637189 18.807108 0.000000 0.000000 9.268679 0.000000 0.000000 -0.639969 -19.847771 -12.343750 -59.494289 22.227774 4.619605 -45.160755 6.007041 32.742123 -9.178369 4.688490 24.755009 0.172252 19.532171 -12.057668 60.060123 -22.167763 4.691935 45.711391 -5.880574 32.858131 8.882390 -5.205750 25.146671 -39.650455 13.292203 -17.977831 5.259339 -47.660275 37.793972 27.492857 7.781610 7.740297 -39.714668 -10.289801 17.723934 20.500874 43.825439 -42.522316 27.492508 -7.785854 -7.742918 
0.000000 4.831345 -5.313606 -90.668900 0.000000 0.000000 9.365486 0.000000 0.000000 19.273378 -0.120705 -0.637212 19.211733 0.000000 0.000000 9.403748 0.000000 0.000000 -0.208569 -19.934137 -11.771509 -59.494282 22.227772 4.619605 -45.160755 6.007040 32.742123 -9.197240 4.590514 24.980270 -0.248926 19.593328 -11.492797 60.060116 -22.167761 4.691936 45.711391 -5.880575 32.858131 8.897264 -5.097150 25.371922 -39.650448 13.292202 -17.977831 5.558970 -47.609863 37.549282 27.492851 7.781609 7.740297 -39.714664 -10.289801 17.723932 20.960783 44.024586 -42.198193 27.492504 -7.785852 -7.742916 
0.000000 4.831345 -5.313606 -90.891258 0.000000 0.000000 10.309724 0.000000 0.000000 17.940689 -0.120741 -0.637234 19.616528 0.000000 0.000000 9.538820 0.000000 0.000000 0.224097 -20.016481 -11.198102 -59.494282 22.227772 4.619605 -45.160755 6.007041 32.742123 -9.216495 4.492605 25.205542 -0.671011 19.650574 -10.927072 60.060123 -22.167763 4.691935 45.711391 -5.880574 32.858131 8.912561 -4.988601 25.597168 -39.650452 13.292201 -17.977831 5.858005 -47.558609 37.305222 27.492855 7.781609 7.740297 -39.714668 -10.289801 17.723934 21.423864 44.221878 -41.870712 27.492508 -7.785854 -7.742918 
